{
  "name": "I02",
  "tempo": 120,
  "events": [
    {
      "noteNumber": 42,
      "startTime": 0,
      "duration": 0.1,
      "velocity": 100,
      "eventKey": "0:0.0000:42:1"
    },
    {
      "noteNumber": 46,
      "startTime": 0.125,
      "duration": 0.1,
      "velocity": 100,
      "eventKey": "1:0.1250:46:1"
    },
    {
      "noteNumber": 42,
      "startTime": 0.25,
      "duration": 0.1,
      "velocity": 100,
      "eventKey": "2:0.2500:42:1"
    },
    {
      "noteNumber": 46,
      "startTime": 0.375,
      "duration": 0.1,
      "velocity": 100,
      "eventKey": "3:0.3750:46:1"
    },
    {
      "noteNumber": 42,
      "startTime": 0.5,
      "duration": 0.1,
      "velocity": 100,
      "eventKey": "4:0.5000:42:1"
    },
    {
      "noteNumber": 46,
      "startTime": 0.625,
      "duration": 0.1,
      "velocity": 100,
      "eventKey": "5:0.6250:46:1"
    },
    {
      "noteNumber": 42,
      "startTime": 0.75,
      "duration": 0.1,
      "velocity": 100,
      "eventKey": "6:0.7500:42:1"
    },
    {
      "noteNumber": 46,
      "startTime": 0.875,
      "duration": 0.1,
      "velocity": 100,
      "eventKey": "7:0.8750:46:1"
    },
    {
      "noteNumber": 42,
      "startTime": 1,
      "duration": 0.1,
      "velocity": 100,
      "eventKey": "8:1.0000:42:1"
    },
    {
      "noteNumber": 46,
      "startTime": 1.125,
      "duration": 0.1,
      "velocity": 100,
      "eventKey": "9:1.1250:46:1"
    },
    {
      "noteNumber": 42,
      "startTime": 1.25,
      "duration": 0.1,
      "velocity": 100,
      "eventKey": "10:1.2500:42:1"
    },
    {
      "noteNumber": 46,
      "startTime": 1.375,
      "duration": 0.1,
      "velocity": 100,
      "eventKey": "11:1.3750:46:1"
    },
    {
      "noteNumber": 42,
      "startTime": 1.5,
      "duration": 0.1,
      "velocity": 100,
      "eventKey": "12:1.5000:42:1"
    },
    {
      "noteNumber": 46,
      "startTime": 1.625,
      "duration": 0.1,
      "velocity": 100,
      "eventKey": "13:1.6250:46:1"
    },
    {
      "noteNumber": 42,
      "startTime": 1.75,
      "duration": 0.1,
      "velocity": 100,
      "eventKey": "14:1.7500:42:1"
    },
    {
      "noteNumber": 46,
      "startTime": 1.875,
      "duration": 0.1,
      "velocity": 100,
      "eventKey": "15:1.8750:46:1"
    },
    {
      "noteNumber": 42,
      "startTime": 2,
      "duration": 0.1,
      "velocity": 100,
      "eventKey": "16:2.0000:42:1"
    },
    {
      "noteNumber": 46,
      "startTime": 2.125,
      "duration": 0.1,
      "velocity": 100,
      "eventKey": "17:2.1250:46:1"
    },
    {
      "noteNumber": 42,
      "startTime": 2.25,
      "duration": 0.1,
      "velocity": 100,
      "eventKey": "18:2.2500:42:1"
    },
    {
      "noteNumber": 46,
      "startTime": 2.375,
      "duration": 0.1,
      "velocity": 100,
      "eventKey": "19:2.3750:46:1"
    },
    {
      "noteNumber": 42,
      "startTime": 2.5,
      "duration": 0.1,
      "velocity": 100,
      "eventKey": "20:2.5000:42:1"
    },
    {
      "noteNumber": 46,
      "startTime": 2.625,
      "duration": 0.1,
      "velocity": 100,
      "eventKey": "21:2.6250:46:1"
    },
    {
      "noteNumber": 42,
      "startTime": 2.75,
      "duration": 0.1,
      "velocity": 100,
      "eventKey": "22:2.7500:42:1"
    },
    {
      "noteNumber": 46,
      "startTime": 2.875,
      "duration": 0.1,
      "velocity": 100,
      "eventKey": "23:2.8750:46:1"
    },
    {
      "noteNumber": 42,
      "startTime": 3,
      "duration": 0.1,
      "velocity": 100,
      "eventKey": "24:3.0000:42:1"
    },
    {
      "noteNumber": 46,
      "startTime": 3.125,
      "duration": 0.1,
      "velocity": 100,
      "eventKey": "25:3.1250:46:1"
    },
    {
      "noteNumber": 42,
      "startTime": 3.25,
      "duration": 0.1,
      "velocity": 100,
      "eventKey": "26:3.2500:42:1"
    },
    {
      "noteNumber": 46,
      "startTime": 3.375,
      "duration": 0.1,
      "velocity": 100,
      "eventKey": "27:3.3750:46:1"
    },
    {
      "noteNumber": 42,
      "startTime": 3.5,
      "duration": 0.1,
      "velocity": 100,
      "eventKey": "28:3.5000:42:1"
    },
    {
      "noteNumber": 46,
      "startTime": 3.625,
      "duration": 0.1,
      "velocity": 100,
      "eventKey": "29:3.6250:46:1"
    },
    {
      "noteNumber": 42,
      "startTime": 3.75,
      "duration": 0.1,
      "velocity": 100,
      "eventKey": "30:3.7500:42:1"
    },
    {
      "noteNumber": 46,
      "startTime": 3.875,
      "duration": 0.1,
      "velocity": 100,
      "eventKey": "31:3.8750:46:1"
    }
  ]
}