{
  "name": "F02",
  "tempo": 120,
  "events": [
    {
      "noteNumber": 40,
      "startTime": 0,
      "duration": 0.4,
      "velocity": 100,
      "eventKey": "0:0.0000:40:1"
    },
    {
      "noteNumber": 40,
      "startTime": 0.5,
      "duration": 0.4,
      "velocity": 100,
      "eventKey": "1:0.5000:40:1"
    },
    {
      "noteNumber": 40,
      "startTime": 1,
      "duration": 0.4,
      "velocity": 100,
      "eventKey": "2:1.0000:40:1"
    },
    {
      "noteNumber": 40,
      "startTime": 1.5,
      "duration": 0.4,
      "velocity": 100,
      "eventKey": "3:1.5000:40:1"
    },
    {
      "noteNumber": 40,
      "startTime": 2,
      "duration": 0.4,
      "velocity": 100,
      "eventKey": "4:2.0000:40:1"
    },
    {
      "noteNumber": 40,
      "startTime": 2.5,
      "duration": 0.4,
      "velocity": 100,
      "eventKey": "5:2.5000:40:1"
    },
    {
      "noteNumber": 40,
      "startTime": 3,
      "duration": 0.4,
      "velocity": 100,
      "eventKey": "6:3.0000:40:1"
    },
    {
      "noteNumber": 40,
      "startTime": 3.5,
      "duration": 0.4,
      "velocity": 100,
      "eventKey": "7:3.5000:40:1"
    },
    {
      "noteNumber": 40,
      "startTime": 4,
      "duration": 0.4,
      "velocity": 100,
      "eventKey": "8:4.0000:40:1"
    },
    {
      "noteNumber": 40,
      "startTime": 4.5,
      "duration": 0.4,
      "velocity": 100,
      "eventKey": "9:4.5000:40:1"
    },
    {
      "noteNumber": 40,
      "startTime": 5,
      "duration": 0.4,
      "velocity": 100,
      "eventKey": "10:5.0000:40:1"
    },
    {
      "noteNumber": 40,
      "startTime": 5.5,
      "duration": 0.4,
      "velocity": 100,
      "eventKey": "11:5.5000:40:1"
    },
    {
      "noteNumber": 40,
      "startTime": 6,
      "duration": 0.4,
      "velocity": 100,
      "eventKey": "12:6.0000:40:1"
    },
    {
      "noteNumber": 40,
      "startTime": 6.5,
      "duration": 0.4,
      "velocity": 100,
      "eventKey": "13:6.5000:40:1"
    },
    {
      "noteNumber": 40,
      "startTime": 7,
      "duration": 0.4,
      "velocity": 100,
      "eventKey": "14:7.0000:40:1"
    },
    {
      "noteNumber": 40,
      "startTime": 7.5,
      "duration": 0.4,
      "velocity": 100,
      "eventKey": "15:7.5000:40:1"
    },
    {
      "noteNumber": 40,
      "startTime": 8,
      "duration": 0.4,
      "velocity": 100,
      "eventKey": "16:8.0000:40:1"
    },
    {
      "noteNumber": 40,
      "startTime": 8.5,
      "duration": 0.4,
      "velocity": 100,
      "eventKey": "17:8.5000:40:1"
    },
    {
      "noteNumber": 40,
      "startTime": 9,
      "duration": 0.4,
      "velocity": 100,
      "eventKey": "18:9.0000:40:1"
    },
    {
      "noteNumber": 40,
      "startTime": 9.5,
      "duration": 0.4,
      "velocity": 100,
      "eventKey": "19:9.5000:40:1"
    },
    {
      "noteNumber": 40,
      "startTime": 10,
      "duration": 0.4,
      "velocity": 100,
      "eventKey": "20:10.0000:40:1"
    },
    {
      "noteNumber": 40,
      "startTime": 10.5,
      "duration": 0.4,
      "velocity": 100,
      "eventKey": "21:10.5000:40:1"
    },
    {
      "noteNumber": 40,
      "startTime": 11,
      "duration": 0.4,
      "velocity": 100,
      "eventKey": "22:11.0000:40:1"
    },
    {
      "noteNumber": 40,
      "startTime": 11.5,
      "duration": 0.4,
      "velocity": 100,
      "eventKey": "23:11.5000:40:1"
    },
    {
      "noteNumber": 40,
      "startTime": 12,
      "duration": 0.4,
      "velocity": 100,
      "eventKey": "24:12.0000:40:1"
    },
    {
      "noteNumber": 40,
      "startTime": 12.5,
      "duration": 0.4,
      "velocity": 100,
      "eventKey": "25:12.5000:40:1"
    },
    {
      "noteNumber": 40,
      "startTime": 13,
      "duration": 0.4,
      "velocity": 100,
      "eventKey": "26:13.0000:40:1"
    },
    {
      "noteNumber": 40,
      "startTime": 13.5,
      "duration": 0.4,
      "velocity": 100,
      "eventKey": "27:13.5000:40:1"
    },
    {
      "noteNumber": 40,
      "startTime": 14,
      "duration": 0.4,
      "velocity": 100,
      "eventKey": "28:14.0000:40:1"
    },
    {
      "noteNumber": 40,
      "startTime": 14.5,
      "duration": 0.4,
      "velocity": 100,
      "eventKey": "29:14.5000:40:1"
    },
    {
      "noteNumber": 40,
      "startTime": 15,
      "duration": 0.4,
      "velocity": 100,
      "eventKey": "30:15.0000:40:1"
    },
    {
      "noteNumber": 40,
      "startTime": 15.5,
      "duration": 0.4,
      "velocity": 100,
      "eventKey": "31:15.5000:40:1"
    }
  ]
}