{
  "name": "F09",
  "tempo": 120,
  "events": [
    {
      "noteNumber": 36,
      "startTime": 0,
      "duration": 0.45,
      "velocity": 100,
      "eventKey": "0:0.0000:36:1"
    },
    {
      "noteNumber": 37,
      "startTime": 0,
      "duration": 0.45,
      "velocity": 100,
      "eventKey": "1:0.0000:37:2"
    },
    {
      "noteNumber": 38,
      "startTime": 0,
      "duration": 0.45,
      "velocity": 100,
      "eventKey": "2:0.0000:38:3"
    },
    {
      "noteNumber": 39,
      "startTime": 0,
      "duration": 0.45,
      "velocity": 100,
      "eventKey": "3:0.0000:39:4"
    },
    {
      "noteNumber": 40,
      "startTime": 0,
      "duration": 0.45,
      "velocity": 100,
      "eventKey": "4:0.0000:40:5"
    },
    {
      "noteNumber": 36,
      "startTime": 0.5,
      "duration": 0.45,
      "velocity": 100,
      "eventKey": "5:0.5000:36:1"
    },
    {
      "noteNumber": 37,
      "startTime": 0.5,
      "duration": 0.45,
      "velocity": 100,
      "eventKey": "6:0.5000:37:2"
    },
    {
      "noteNumber": 38,
      "startTime": 0.5,
      "duration": 0.45,
      "velocity": 100,
      "eventKey": "7:0.5000:38:3"
    },
    {
      "noteNumber": 39,
      "startTime": 0.5,
      "duration": 0.45,
      "velocity": 100,
      "eventKey": "8:0.5000:39:4"
    },
    {
      "noteNumber": 40,
      "startTime": 0.5,
      "duration": 0.45,
      "velocity": 100,
      "eventKey": "9:0.5000:40:5"
    },
    {
      "noteNumber": 36,
      "startTime": 1,
      "duration": 0.45,
      "velocity": 100,
      "eventKey": "10:1.0000:36:1"
    },
    {
      "noteNumber": 37,
      "startTime": 1,
      "duration": 0.45,
      "velocity": 100,
      "eventKey": "11:1.0000:37:2"
    },
    {
      "noteNumber": 38,
      "startTime": 1,
      "duration": 0.45,
      "velocity": 100,
      "eventKey": "12:1.0000:38:3"
    },
    {
      "noteNumber": 39,
      "startTime": 1,
      "duration": 0.45,
      "velocity": 100,
      "eventKey": "13:1.0000:39:4"
    },
    {
      "noteNumber": 40,
      "startTime": 1,
      "duration": 0.45,
      "velocity": 100,
      "eventKey": "14:1.0000:40:5"
    },
    {
      "noteNumber": 36,
      "startTime": 1.5,
      "duration": 0.45,
      "velocity": 100,
      "eventKey": "15:1.5000:36:1"
    },
    {
      "noteNumber": 37,
      "startTime": 1.5,
      "duration": 0.45,
      "velocity": 100,
      "eventKey": "16:1.5000:37:2"
    },
    {
      "noteNumber": 38,
      "startTime": 1.5,
      "duration": 0.45,
      "velocity": 100,
      "eventKey": "17:1.5000:38:3"
    },
    {
      "noteNumber": 39,
      "startTime": 1.5,
      "duration": 0.45,
      "velocity": 100,
      "eventKey": "18:1.5000:39:4"
    },
    {
      "noteNumber": 40,
      "startTime": 1.5,
      "duration": 0.45,
      "velocity": 100,
      "eventKey": "19:1.5000:40:5"
    }
  ]
}