{
  "name": "I01",
  "tempo": 120,
  "events": [
    {
      "noteNumber": 36,
      "startTime": 0,
      "duration": 0.05,
      "velocity": 100,
      "eventKey": "0:0.0000:36:1"
    },
    {
      "noteNumber": 37,
      "startTime": 0.0625,
      "duration": 0.05,
      "velocity": 100,
      "eventKey": "1:0.0625:37:1"
    },
    {
      "noteNumber": 38,
      "startTime": 0.125,
      "duration": 0.05,
      "velocity": 100,
      "eventKey": "2:0.1250:38:1"
    },
    {
      "noteNumber": 39,
      "startTime": 0.1875,
      "duration": 0.05,
      "velocity": 100,
      "eventKey": "3:0.1875:39:1"
    },
    {
      "noteNumber": 40,
      "startTime": 0.25,
      "duration": 0.05,
      "velocity": 100,
      "eventKey": "4:0.2500:40:1"
    },
    {
      "noteNumber": 41,
      "startTime": 0.3125,
      "duration": 0.05,
      "velocity": 100,
      "eventKey": "5:0.3125:41:1"
    },
    {
      "noteNumber": 42,
      "startTime": 0.375,
      "duration": 0.05,
      "velocity": 100,
      "eventKey": "6:0.3750:42:1"
    },
    {
      "noteNumber": 43,
      "startTime": 0.4375,
      "duration": 0.05,
      "velocity": 100,
      "eventKey": "7:0.4375:43:1"
    },
    {
      "noteNumber": 36,
      "startTime": 0.5,
      "duration": 0.05,
      "velocity": 100,
      "eventKey": "8:0.5000:36:1"
    },
    {
      "noteNumber": 37,
      "startTime": 0.5625,
      "duration": 0.05,
      "velocity": 100,
      "eventKey": "9:0.5625:37:1"
    },
    {
      "noteNumber": 38,
      "startTime": 0.625,
      "duration": 0.05,
      "velocity": 100,
      "eventKey": "10:0.6250:38:1"
    },
    {
      "noteNumber": 39,
      "startTime": 0.6875,
      "duration": 0.05,
      "velocity": 100,
      "eventKey": "11:0.6875:39:1"
    },
    {
      "noteNumber": 40,
      "startTime": 0.75,
      "duration": 0.05,
      "velocity": 100,
      "eventKey": "12:0.7500:40:1"
    },
    {
      "noteNumber": 41,
      "startTime": 0.8125,
      "duration": 0.05,
      "velocity": 100,
      "eventKey": "13:0.8125:41:1"
    },
    {
      "noteNumber": 42,
      "startTime": 0.875,
      "duration": 0.05,
      "velocity": 100,
      "eventKey": "14:0.8750:42:1"
    },
    {
      "noteNumber": 43,
      "startTime": 0.9375,
      "duration": 0.05,
      "velocity": 100,
      "eventKey": "15:0.9375:43:1"
    },
    {
      "noteNumber": 36,
      "startTime": 1,
      "duration": 0.05,
      "velocity": 100,
      "eventKey": "16:1.0000:36:1"
    },
    {
      "noteNumber": 37,
      "startTime": 1.0625,
      "duration": 0.05,
      "velocity": 100,
      "eventKey": "17:1.0625:37:1"
    },
    {
      "noteNumber": 38,
      "startTime": 1.125,
      "duration": 0.05,
      "velocity": 100,
      "eventKey": "18:1.1250:38:1"
    },
    {
      "noteNumber": 39,
      "startTime": 1.1875,
      "duration": 0.05,
      "velocity": 100,
      "eventKey": "19:1.1875:39:1"
    },
    {
      "noteNumber": 40,
      "startTime": 1.25,
      "duration": 0.05,
      "velocity": 100,
      "eventKey": "20:1.2500:40:1"
    },
    {
      "noteNumber": 41,
      "startTime": 1.3125,
      "duration": 0.05,
      "velocity": 100,
      "eventKey": "21:1.3125:41:1"
    },
    {
      "noteNumber": 42,
      "startTime": 1.375,
      "duration": 0.05,
      "velocity": 100,
      "eventKey": "22:1.3750:42:1"
    },
    {
      "noteNumber": 43,
      "startTime": 1.4375,
      "duration": 0.05,
      "velocity": 100,
      "eventKey": "23:1.4375:43:1"
    },
    {
      "noteNumber": 36,
      "startTime": 1.5,
      "duration": 0.05,
      "velocity": 100,
      "eventKey": "24:1.5000:36:1"
    },
    {
      "noteNumber": 37,
      "startTime": 1.5625,
      "duration": 0.05,
      "velocity": 100,
      "eventKey": "25:1.5625:37:1"
    },
    {
      "noteNumber": 38,
      "startTime": 1.625,
      "duration": 0.05,
      "velocity": 100,
      "eventKey": "26:1.6250:38:1"
    },
    {
      "noteNumber": 39,
      "startTime": 1.6875,
      "duration": 0.05,
      "velocity": 100,
      "eventKey": "27:1.6875:39:1"
    },
    {
      "noteNumber": 40,
      "startTime": 1.75,
      "duration": 0.05,
      "velocity": 100,
      "eventKey": "28:1.7500:40:1"
    },
    {
      "noteNumber": 41,
      "startTime": 1.8125,
      "duration": 0.05,
      "velocity": 100,
      "eventKey": "29:1.8125:41:1"
    },
    {
      "noteNumber": 42,
      "startTime": 1.875,
      "duration": 0.05,
      "velocity": 100,
      "eventKey": "30:1.8750:42:1"
    },
    {
      "noteNumber": 43,
      "startTime": 1.9375,
      "duration": 0.05,
      "velocity": 100,
      "eventKey": "31:1.9375:43:1"
    }
  ]
}